<?xml version="1.0" standalone="no"?>
<!DOCTYPE svg PUBLIC "-//W3C//DTD SVG 1.0//EN" "http://www.w3.org/TR/2001/REC-SVG-20010904/DTD/svg10.dtd">
<svg xmlns="http://www.w3.org/2000/svg" xmlns:xlink="http://www.w3.org/1999/xlink" id="body_1" width="133" height="82">

<g transform="matrix(0.15985577 0 0 0.15985577 -0 0.07692279)">
	<g>
	</g>
    <path d="M43.816 91.347C 19.722002 103.825 6.3840027 123.185 2.9420013 152.012C 1.2210014 164.489 0.7910013 219.992 1.6510013 275.495C 2.9420013 388.651 4.2320013 393.815 33.920002 416.187L33.920002 416.187L49.409004 428.234L168.158 429.525C 244.31201 430.386 292.501 429.095 302.82703 426.513C 322.18802 420.489 343.27002 397.256 349.29404 374.022C 352.30603 362.835 353.59705 317.229 352.73602 246.237C 351.44504 122.754 350.58502 118.881996 320.467 96.078995L320.467 96.078995L304.978 84.032L184.077 82.741C 65.327995 81.45 62.745995 81.88 43.815002 91.34599L43.815002 91.34599L43.816 91.347zM106.203 206.654C 73.934006 209.23601 73.504 209.23601 96.737 210.09601C 129.436 211.38701 128.575 219.561 95.446 219.561C 72.643 219.561 69.631 218.70001 69.631 210.95601C 69.631 202.781 72.213 202.35101 105.341995 203.212L105.341995 203.212L140.622 204.073L106.201996 206.655zM256.791 215.259C 265.396 231.60901 264.96597 232.469 252.48799 232.469C 242.592 232.469 242.16199 233.32999 246.034 241.07399C 248.616 245.80699 259.802 254.41199 270.988 260.43597C 282.17502 266.02997 289.058 270.76196 286.90802 271.19296C 284.32602 271.19296 282.17502 276.35596 282.605 282.80997C 282.605 292.27597 280.454 295.28796 271.84802 296.14798C 265.82404 297.00897 258.51 300.02097 255.49802 302.602C 247.32301 309.486 233.55502 309.486 228.39201 302.602C 224.95001 298.729 211.61201 297.008 186.22702 296.578C 166.00502 296.148 153.52802 294.857 159.12102 293.996C 167.29602 292.275 168.58601 289.263 168.58601 270.763C 168.58601 250.111 168.15602 249.68 155.67902 249.68C 147.07402 249.68 142.77202 251.831 142.77202 256.134C 142.77202 259.576 144.92302 262.588 147.07501 262.588C 149.65701 262.588 151.378 266.461 151.378 271.19302C 151.378 275.92505 149.227 279.79803 146.645 279.79803C 144.063 279.79803 142.772 283.67102 144.063 288.40305C 145.784 295.71805 144.063 297.00806 131.586 297.00806C 122.550995 297.00806 113.516 300.45004 108.353 305.61307C 101.468994 312.49707 97.59599 313.35806 91.143 309.91608C 86.409996 307.33408 82.537994 303.46207 82.537994 301.31107C 82.537994 298.72906 79.09599 297.00806 75.22399 296.57806C 69.62999 296.57806 70.49099 295.28708 78.23599 291.84506C 91.57399 286.25107 108.35399 284.96106 110.935 289.26306C 112.226 290.98407 118.68 292.70505 125.993996 292.70505C 138.472 292.70505 138.472 292.27505 138.472 269.04105L138.472 269.04105L138.472 245.37704L172.892 245.37704L172.892 292.70404L199.137 292.70404C 216.34698 292.70404 227.103 290.55304 231.40599 286.25003C 235.27899 282.80804 239.581 279.79602 241.732 279.79602C 243.883 279.79602 248.18599 282.808 252.058 286.25003C 258.512 292.70404 280.455 295.28604 280.455 289.26202C 280.025 276.78403 273.13998 266.02902 259.373 257.42303C 250.76799 252.26004 242.59299 247.95804 240.87198 247.95804C 239.58098 247.52805 236.56898 246.23705 234.84798 244.08504C 228.82397 238.49104 207.31198 240.64304 207.31198 247.09703C 207.31198 251.83003 213.33598 253.98103 227.96399 255.27203L227.96399 255.27203L248.18599 256.56302L225.81299 257.424C 204.301 258.285 203.00899 257.854 203.00899 247.52802C 203.00899 238.06302 204.72998 236.77202 217.20699 236.77202C 224.95099 236.77202 233.98698 239.35402 236.999 241.93501C 241.732 246.66801 242.59299 246.238 240.872 241.07402C 239.581 236.77103 230.976 233.75902 217.63899 232.03802C 197.84799 229.88702 198.708 229.45602 227.53499 229.02603C 253.34999 228.16504 258.08298 226.87503 256.362 221.71103C 254.211 216.54803 245.606 215.25703 217.64 215.25703C 197.84799 215.25703 181.499 213.53604 181.499 211.38403C 181.499 209.23203 176.336 206.22104 169.88199 205.36003C 162.99799 204.49904 178.48698 203.20903 203.872 202.77803L203.872 202.77803L249.909 202.34804L256.793 215.25504zM134.169 238.923C 134.169 249.24901 133.30801 249.679 106.203 249.679C 79.09799 249.679 78.237 249.24901 78.237 238.923C 78.237 228.597 79.098 228.167 106.203 228.167C 133.30801 228.167 134.169 228.597 134.169 238.923z" stroke="none" fill="#fff" fill-rule="nonzero" />
    <path d="M202.149 209.666C 212.045 210.527 227.534 210.527 236.569 209.666C 245.174 208.80501 236.999 207.945 218.068 207.945C 199.137 207.945 191.823 208.806 202.14899 209.666L202.14899 209.666L202.149 209.666z" stroke="none" fill="#fff" fill-rule="nonzero" />
    <path d="M233.127 290.553C 226.673 298.298 230.545 304.321 241.302 303.461C 253.779 302.6 256.79102 298.298 250.338 290.553C 243.454 282.37802 240.012 282.37802 233.12799 290.553L233.12799 290.553L233.127 290.553zM249.477 297.437C 250.768 302.17 250.338 302.17 246.46501 297.00702C 242.16202 291.41302 241.30202 291.41302 237.42902 297.00702C 235.27802 300.449 233.12602 301.31003 233.12602 298.72803C 233.12602 287.11102 246.46402 285.82004 249.47603 297.43704z" stroke="none" fill="#fff" fill-rule="nonzero" />
    <path d="M87.703 297.007C 87.703 303.03098 88.564 305.18198 89.854004 302.16998C 90.715004 299.58798 90.715004 294.425 89.854004 291.413C 88.563 288.831 87.703 290.983 87.703 297.007z" stroke="none" fill="#fff" fill-rule="nonzero" />
    <path d="M101.04 291.413C 98.028 292.274 95.446 295.28598 95.446 297.43698C 95.446 300.01898 97.167 300.87897 99.319 299.58798C 101.47 297.86697 104.482 299.58798 105.342 302.16998C 106.633 305.18198 107.924 303.46097 107.924 297.86697C 108.354004 292.70398 107.924 288.40097 107.494 288.83096C 106.633 288.83096 103.621 290.12195 101.04 291.41296L101.04 291.41296L101.04 291.413z" stroke="none" fill="#fff" fill-rule="nonzero" />
    <path d="M85.551 235.481C 78.237 242.365 84.26 245.377 106.203 245.377C 124.273 245.377 129.867 244.086 129.867 238.923C 129.867 234.19 124.704 232.46901 109.215004 232.46901C 97.59801 232.46901 86.842 233.76001 85.551 235.481z" stroke="none" fill="#fff" fill-rule="nonzero" />
    <path d="M478.372 187.292L478.372 236.77101L491.28 236.77101C 503.327 236.77101 504.188 235.48001 504.188 221.712C 504.188 207.08301 504.61798 206.653 520.537 206.653C 534.735 206.653 537.747 208.804 544.631 221.712C 551.08496 233.32901 555.38696 236.77101 565.28296 236.77101C 579.48096 236.77101 579.912 234.62001 568.725 217.40901C 560.55 204.932 560.55 204.932 568.725 196.75702C 577.32996 189.01302 580.342 162.33702 573.888 152.44101C 567.004 142.115 550.224 137.81201 515.374 137.81201L515.374 137.81201L478.372 137.81201L478.372 187.29102L478.372 187.292zM550.654 169.653C 552.80597 180.409 544.63 185.142 522.688 185.142C 505.04797 185.142 504.18698 184.712 504.18698 171.804L504.18698 171.804L504.18698 158.897L526.56 160.188C 544.631 161.049 549.794 163.2 550.654 169.653z" stroke="none" fill="#fff" fill-rule="nonzero" />
    <path d="M590.237 144.268C 590.237 145.559 600.563 166.641 612.61 191.59601C 633.692 234.19101 635.844 236.77301 648.321 236.77301C 660.368 236.77301 662.519 234.19101 681.88 192.457C 693.067 168.363 702.102 147.28 702.102 145.13C 702.102 143.40901 697.369 142.11801 691.776 142.11801C 683.171 142.11801 679.299 147.712 665.531 178.69C 656.49603 198.481 647.891 213.97101 646.17 213.11C 644.449 211.819 636.704 195.469 628.52997 176.538C 615.62195 145.129 613.47095 142.118 602.285 142.118C 595.831 142.118 590.238 142.97899 590.238 144.269L590.238 144.269L590.237 144.268z" stroke="none" fill="#fff" fill-rule="nonzero" />
    <path d="M489.558 306.042C 480.522 312.926 478.371 318.52 478.371 333.578C 478.371 358.102 488.267 370.15 511.501 373.161C 536.025 376.603 551.515 371.87003 551.515 361.544C 551.515 354.66 548.073 353.36902 526.991 352.078C 502.46704 350.78702 502.03702 350.357 500.74603 337.019C 499.02502 319.37903 510.64203 312.49503 534.736 316.367C 550.655 318.949 551.51605 318.518 551.51605 308.19202C 551.51605 297.43503 550.655 297.005 526.13104 297.005C 507.20004 297.005 498.16504 299.156 489.55905 306.04102L489.55905 306.04102L489.558 306.042z" stroke="none" fill="#fff" fill-rule="nonzero" />
    <path d="M581.632 308.193C 581.632 318.51898 582.49304 318.94998 600.563 316.36798C 618.203 313.356 637.56396 318.94998 637.56396 326.26398C 637.56396 327.985 626.37695 329.27597 612.17896 329.27597C 583.3519 329.27597 572.165 336.15997 573.886 352.50897C 575.607 367.998 591.957 375.31198 618.20197 372.3C 630.24896 371.009 644.01697 369.718 649.61096 370.149C 658.21594 370.149 659.07697 367.998 659.07697 343.904C 659.07697 322.392 657.35596 316.36798 648.321 307.763C 639.286 298.297 634.123 297.006 609.599 297.006C 582.493 297.006 581.633 297.436 581.633 308.19302L581.633 308.19302L581.632 308.193zM635.413 348.637C 638.42505 353.37 620.784 358.533 607.017 356.382C 601.854 355.521 596.69104 352.509 595.4 349.498C 593.24805 343.04398 631.541 342.18298 635.414 348.637z" stroke="none" fill="#fff" fill-rule="nonzero" />
    <path d="M676.288 334.439C 676.288 369.72 676.288 370.15 687.044 370.15C 697.37 370.15 697.8 368.859 697.8 344.76498C 697.8 317.659 700.812 314.21698 727.057 314.21698C 734.37103 314.21698 736.953 312.06598 735.662 306.472C 734.371 300.448 729.208 299.15698 705.114 299.15698L705.114 299.15698L676.287 298.727L676.287 334.438L676.288 334.439z" stroke="none" fill="#fff" fill-rule="nonzero" />
    <path d="M761.477 301.74C 752.011 306.90298 751.151 328.41498 759.756 335.72998C 763.198 338.31198 775.245 342.184 786.43097 343.47498C 814.397 347.77798 808.80396 355.09198 778.686 354.23196C 757.173 353.80197 753.73096 354.66196 753.73096 361.54697C 753.73096 370.15198 764.91797 374.45496 789.44196 374.45496C 838.4899 374.45496 846.66595 333.15094 798.90796 327.55795C 786.86096 325.83694 777.39496 322.39496 776.105 318.95294C 774.384 314.21994 779.547 313.35895 800.62897 315.07996C 825.584 316.80096 827.305 316.37094 826.014 308.19595C 824.72296 300.02097 821.281 299.15994 796.75696 298.29996C 781.26794 297.43896 765.34796 299.16095 761.4769 301.74194L761.4769 301.74194L761.477 301.74z" stroke="none" fill="#fff" fill-rule="nonzero" />
</g>
</svg>